<svg width="512" height="512" xmlns="http://www.w3.org/2000/svg">

 <g>
  <title>background</title>
  <rect fill="none" id="canvas_background" height="514" width="514" y="-1" x="-1"/>
 </g>
 <g>
  <title>Layer 1</title>
  <g stroke="null" id="svg_38">
   <path stroke="null" id="svg_5" fill="#ffc250" d="m301.748265,309.112582l0,-231.482113c0,-5.596731 -4.024631,-10.133159 -8.989357,-10.133159l-125.539216,0c-4.964726,0 -8.988882,4.536963 -8.988882,10.133159l0,231.482113c0,5.596731 4.024631,10.133159 8.988882,10.133159l125.539691,0c4.96425,0 8.988882,-4.536963 8.988882,-10.133159z"/>
   <path stroke="null" id="svg_6" fill="#eab14d" d="m322.23168,67.496775l-30.084451,0c4.964726,0 8.989357,4.536963 8.989357,10.133159l0,231.482113c0,5.596731 -4.024631,10.133159 -8.989357,10.133159l30.084451,0c4.964726,0 8.989357,-4.536963 8.989357,-10.133159l0,-231.481577c0,-5.596731 -4.024631,-10.133695 -8.989357,-10.133695z"/>
   <path stroke="null" id="svg_7" fill="#f5f5f5" d="m172.922996,299.060862l0,-211.379207c0,-2.000593 1.438658,-3.621856 3.212861,-3.621856l137.179658,0c1.774678,0 3.212861,1.621798 3.212861,3.621856l0,211.379207c0,2.000593 -1.438658,3.621856 -3.212861,3.621856l-137.179658,0c-1.774678,0 -3.212861,-1.621263 -3.212861,-3.621856z"/>
   <path stroke="null" id="svg_8" fill="#eaeaea" d="m313.315515,84.059799l-30.084451,0c1.774678,0 3.212861,1.621798 3.212861,3.621856l0,211.379207c0,2.000593 -1.438658,3.621856 -3.212861,3.621856l30.084451,0c1.774678,0 3.212861,-1.621798 3.212861,-3.621856l0,-211.379207c0,-2.000057 -1.438183,-3.621856 -3.212861,-3.621856z"/>
   <path stroke="null" id="svg_9" fill="#c2d0da" d="m263.821772,57.538815l0,-5.334736c0,-4.018331 -2.889674,-7.276394 -6.454714,-7.276394l-25.28322,0c-3.56504,0 -6.454714,3.258063 -6.454714,7.276394l0,5.334736c0,1.643229 -1.18201,2.975708 -2.639679,2.975708l-10.522595,0c-3.500403,0 -6.338271,3.199127 -6.338271,7.145128l0,16.400148l77.193738,0l0,-16.400148c0,-3.946001 -2.837869,-7.145128 -6.338271,-7.145128l-10.522595,0c-1.457669,0 -2.639679,-1.332479 -2.639679,-2.975708z"/>
   <path stroke="null" id="svg_12" d="m191.612247,142.863517l0,-31.899118c0,-3.533988 2.541772,-6.399326 5.676688,-6.399326l28.29694,0c3.134916,0 5.676688,2.865338 5.676688,6.399326l0,31.899118c0,3.533988 -2.541772,6.399326 -5.676688,6.399326l-28.29694,0c-3.135391,0 -5.676688,-2.865338 -5.676688,-6.399326z"/>
   <path stroke="null" id="svg_13" d="m191.612247,209.321353l0,-31.899118c0,-3.533988 2.541772,-6.399326 5.676688,-6.399326l28.29694,0c3.134916,0 5.676688,2.865338 5.676688,6.399326l0,31.899118c0,3.533988 -2.541772,6.399326 -5.676688,6.399326l-28.29694,0c-3.135391,0 -5.676688,-2.865338 -5.676688,-6.399326z"/>
   <path stroke="null" id="svg_14" d="m191.612247,275.778652l0,-31.899118c0,-3.533988 2.541772,-6.399326 5.676688,-6.399326l28.29694,0c3.134916,0 5.676688,2.865338 5.676688,6.399326l0,31.899118c0,3.533988 -2.541772,6.399326 -5.676688,6.399326l-28.29694,0c-3.135391,0 -5.676688,-2.864802 -5.676688,-6.399326z"/>
   <path stroke="null" id="svg_16" fill="#f6f9f9" d="m209.042018,138.33727c-0.004277,0 -0.00808,0 -0.012357,0c-1.621164,-0.004286 -3.15868,-0.889391 -4.113508,-2.366529l-4.287934,-6.638283c-1.193892,-1.848432 -0.832682,-4.437845 0.807017,-5.783718c1.6397,-1.345337 3.936705,-0.938146 5.130122,0.90975l2.486165,3.849561l7.269336,-11.133455c1.202446,-1.841467 3.500878,-2.234728 5.133924,-0.879747c1.633521,1.354981 1.982849,3.946537 0.780402,5.788004l-9.083461,13.911462c-0.95768,1.467494 -2.493769,2.342955 -4.109705,2.342955z"/>
   <path stroke="null" id="svg_18" fill="#f6f9f9" d="m209.041542,206.241168c-0.004753,0 -0.00903,0 -0.013308,0c-1.621164,-0.004822 -3.15868,-0.889391 -4.113032,-2.367601l-4.286983,-6.637211c-1.193892,-1.848432 -0.832682,-4.437845 0.807017,-5.783718c1.6397,-1.345337 3.936705,-0.938146 5.130122,0.90975l2.486165,3.849561l7.269336,-11.133455c1.202446,-1.840931 3.500878,-2.234728 5.133924,-0.879747c1.633521,1.354981 1.982849,3.946537 0.780402,5.788004l-9.083461,13.911462c-0.95768,1.468566 -2.493769,2.342955 -4.110181,2.342955z"/>
   <path stroke="null" id="svg_20" fill="#f6f9f9" d="m209.041542,271.253476c-0.004277,0 -0.008555,0 -0.012357,-0.000536c-1.620689,-0.004286 -3.15868,-0.888855 -4.113032,-2.365457l-4.287934,-6.639354c-1.193892,-1.848432 -0.832207,-4.437309 0.807493,-5.783182c1.64065,-1.345873 3.936705,-0.937611 5.130122,0.910286l2.48569,3.849025l7.269811,-11.133455c1.202446,-1.840931 3.500878,-2.234728 5.133924,-0.879747c1.633521,1.354981 1.982849,3.946537 0.780402,5.788004l-9.083461,13.911462c-0.95863,1.467494 -2.494245,2.342955 -4.110656,2.342955z"/>
   <path stroke="null" id="svg_23" fill="#ddeafb" d="m294.943749,122.403784l-45.39592,0c-2.028,0 -3.671977,-1.853254 -3.671977,-4.139417s1.643977,-4.139417 3.671977,-4.139417l45.39592,0c2.028,0 3.671977,1.853254 3.671977,4.139417s-1.643977,4.139417 -3.671977,4.139417z"/>
   <path stroke="null" id="svg_25" fill="#ddeafb" d="m272.246027,139.702431l-22.697722,0c-2.028,0 -3.671977,-1.853254 -3.671977,-4.139417s1.643977,-4.139417 3.671977,-4.139417l22.697722,0c2.028,0 3.671977,1.853254 3.671977,4.139417s-1.643977,4.139417 -3.671977,4.139417z"/>
   <path stroke="null" id="svg_28" fill="#ddeafb" d="m280.006797,188.861619l-30.458492,0c-2.028,0 -3.671977,-1.853254 -3.671977,-4.139417s1.643977,-4.139417 3.671977,-4.139417l30.458492,0c2.028,0 3.671977,1.853254 3.671977,4.139417s-1.643977,4.139417 -3.671977,4.139417z"/>
   <path stroke="null" id="svg_30" fill="#ddeafb" d="m272.246027,206.160266l-22.697722,0c-2.028,0 -3.671977,-1.853254 -3.671977,-4.139417s1.643977,-4.139417 3.671977,-4.139417l22.697722,0c2.028,0 3.671977,1.853254 3.671977,4.139417s-1.643977,4.139417 -3.671977,4.139417z"/>
   <path stroke="null" id="svg_33" fill="#fc8086" d="m353.981495,153.003642l-3.605438,-5.35456l-13.490689,-9.6306l-5.185729,-0.921001l-69.078887,123.053615c-1.66679,2.967136 -2.889674,6.223055 -3.619697,9.637029c8.404768,0.117335 16.033412,5.562977 19.721073,14.078088c2.425805,-2.203653 4.513689,-4.841821 6.18048,-7.808956l69.078887,-123.053615z"/>
   <path stroke="null" id="svg_34" fill="#8c9ba6" d="m363.734144,115.110245l-5.829251,-4.161383c-4.544107,-3.244132 -10.561092,-1.719846 -13.437458,3.403794l-5.345421,9.522373l1.705288,3.875278l16.221146,11.579758l4.355898,0.451125l5.348748,-9.528266c2.874465,-5.120961 1.523257,-11.900153 -3.018949,-15.142678z"/>
   <path stroke="null" id="svg_35" fill="#c9e2e7" d="m331.707236,137.062229l7.426022,-13.222037l22.28601,15.906279l-7.426022,13.222037l-22.28601,-15.906279z"/>
   <path stroke="null" id="svg_36" fill="#7c8b96" d="m278.722128,283.866749l-19.669268,17.868178c-2.774657,2.520833 -6.805942,-0.356828 -5.970883,-4.26211l5.919078,-27.684157c8.404768,0.116799 16.033887,5.562977 19.721073,14.078088z"/>
   <path stroke="null" id="svg_37" fill="#fb636f" d="m273.563015,276.195487l72.412468,-128.906984l-6.204719,-4.429272l-72.412468,128.906984c2.271816,1.079056 4.36778,2.575482 6.204719,4.429272z"/>
  </g>
  <text xml:space="preserve" text-anchor="start" font-family="'Simonetta', serif" font-size="52" id="svg_39" y="400.402648" x="137.306176" fill-opacity="null" stroke-opacity="null" stroke-width="0" stroke="null" fill="#000000">To Do List</text>
 </g>
</svg>